<svg width="48" height="48" viewBox="0 0 48 48" fill="none" xmlns="http://www.w3.org/2000/svg">
<g clip-path="url(#clip0_644_8766)">
<path d="M37.9645 48H10.0072C7.48744 48 5.4375 45.9567 5.4375 43.445V4.58134C5.4375 2.05518 7.48744 0 10.0072 0H29.8334L42.5625 12.6978V43.445C42.5625 45.9567 40.4998 48 37.9645 48ZM10.0072 1.85914C8.50876 1.85914 7.28958 3.08029 7.28958 4.58134V43.445C7.28958 44.9315 8.50876 46.1409 10.0072 46.1409H37.9644C39.4786 46.1409 40.7104 44.9315 40.7104 43.445V13.4714L29.0697 1.85914H10.0072Z" fill="black" stroke="black" stroke-width="0.09375" stroke-miterlimit="10"/>
<path d="M42.5355 15.3025L31.3214 15.2138C28.9492 15.2138 27.4117 13.3833 27.4117 10.5502L27.3215 0.0547485H29.7521V1.91389H29.1897L29.2637 10.5422C29.2637 11.3935 29.465 13.3547 31.3287 13.3547L40.6835 13.4286V12.8662H42.5355V15.3025Z" fill="black" stroke="black" stroke-width="0.09375" stroke-miterlimit="10"/>
<path d="M15.4386 31.4924H13.6689V34.1985C13.6689 34.5854 13.5778 34.8789 13.3956 35.0787C13.2134 35.2786 12.9835 35.3786 12.7059 35.3786C12.4152 35.3786 12.181 35.2797 12.0031 35.082C11.8252 34.8842 11.7363 34.594 11.7363 34.2114V26.8432C11.7363 26.4172 11.834 26.1129 12.0292 25.9302C12.2244 25.7476 12.5345 25.6564 12.9596 25.6564H15.4386C16.1716 25.6564 16.7356 25.713 17.1304 25.826C17.5208 25.9348 17.858 26.1152 18.1422 26.3672C18.4262 26.6194 18.642 26.928 18.7896 27.2931C18.937 27.6583 19.0108 28.0692 19.0108 28.5256C19.0108 29.4995 18.7115 30.2373 18.1128 30.7394C17.5143 31.2413 16.6228 31.4924 15.4386 31.4924ZM14.9702 27.1105H13.6689V30.0317H14.9702C15.4256 30.0317 15.8063 29.984 16.1121 29.8883C16.4179 29.7927 16.651 29.6362 16.8115 29.4188C16.9719 29.2015 17.0523 28.9168 17.0523 28.5645C17.0523 28.1429 16.9286 27.7995 16.6815 27.5342C16.4038 27.2518 15.8333 27.1105 14.9702 27.1105Z" fill="black" stroke="black" stroke-width="0.09375" stroke-miterlimit="10"/>
<path d="M22.4481 25.6564H24.9662C25.6211 25.6564 26.1829 25.7174 26.6514 25.839C27.1199 25.9608 27.545 26.1891 27.9268 26.5237C28.92 27.3758 29.4168 28.6712 29.4168 30.4101C29.4168 30.9839 29.3669 31.5078 29.2671 31.9815C29.1672 32.4554 29.0133 32.8825 28.8052 33.2628C28.597 33.6433 28.3302 33.9834 28.0049 34.2833C27.7489 34.5137 27.4691 34.6986 27.1656 34.8375C26.8618 34.9767 26.5354 35.0745 26.1862 35.131C25.837 35.1875 25.4433 35.2157 25.0052 35.2157H22.4871C22.1357 35.2157 21.8711 35.1625 21.6933 35.056C21.5154 34.9496 21.3994 34.7996 21.3452 34.606C21.291 34.4127 21.2639 34.1616 21.2639 33.853V26.8432C21.2639 26.4258 21.3571 26.1237 21.5437 25.9369C21.7301 25.7499 22.0317 25.6564 22.4481 25.6564ZM23.1964 27.1888V33.6768H24.6603C24.9812 33.6768 25.2329 33.6681 25.4151 33.6508C25.5974 33.6334 25.786 33.5899 25.9812 33.5203C26.1763 33.4508 26.3456 33.353 26.4887 33.2269C27.135 32.679 27.4583 31.7358 27.4583 30.3969C27.4583 29.4536 27.3161 28.7472 27.032 28.2776C26.7478 27.8082 26.3977 27.5094 25.9812 27.381C25.5647 27.2529 25.0615 27.1887 24.4716 27.1887H23.1964V27.1888Z" fill="black" stroke="black" stroke-width="0.09375" stroke-miterlimit="10"/>
<path d="M37.4142 27.1496H33.6077V29.5949H36.7895C37.0845 29.5949 37.3046 29.6613 37.45 29.7938C37.5953 29.9265 37.6679 30.1035 37.6679 30.3252C37.6679 30.547 37.5941 30.7231 37.4468 30.8534C37.2991 30.9839 37.0802 31.0491 36.7895 31.0491H33.6077V34.1986C33.6077 34.5986 33.5177 34.8952 33.3377 35.0886C33.1577 35.282 32.9267 35.3788 32.6449 35.3788C32.3585 35.3788 32.1252 35.281 31.9454 35.0854C31.7653 34.8897 31.6753 34.5941 31.6753 34.1986V26.8432C31.6753 26.565 31.7164 26.3378 31.799 26.1617C31.8813 25.9857 32.0104 25.8575 32.1861 25.7769C32.3618 25.6966 32.5863 25.6563 32.8596 25.6563H37.4143C37.7222 25.6563 37.9511 25.7248 38.1007 25.8616C38.2504 25.9986 38.3252 26.178 38.3252 26.3997C38.3252 26.6256 38.2504 26.8071 38.1007 26.9441C37.951 27.0811 37.7221 27.1496 37.4142 27.1496Z" fill="black" stroke="black" stroke-width="0.09375" stroke-miterlimit="10"/>
</g>
<defs>
<clipPath id="clip0_644_8766">
<rect width="48" height="48" fill="white"/>
</clipPath>
</defs>
</svg>
